<svg width="37" height="31" viewBox="0 0 37 31" fill="none" xmlns="http://www.w3.org/2000/svg">
<path d="M4.625 15.5C4.625 10.207 4.625 7.56054 6.17929 5.84565C6.31118 5.70013 6.45013 5.56118 6.59565 5.42929C8.31054 3.875 10.957 3.875 16.25 3.875H20.75C26.043 3.875 28.6895 3.875 30.4044 5.42929C30.5499 5.56118 30.6888 5.70013 30.8207 5.84565C32.375 7.56054 32.375 10.207 32.375 15.5V15.5C32.375 20.793 32.375 23.4395 30.8207 25.1544C30.6888 25.2999 30.5499 25.4388 30.4044 25.5707C28.6895 27.125 26.043 27.125 20.75 27.125H16.25C10.957 27.125 8.31054 27.125 6.59565 25.5707C6.45013 25.4388 6.31118 25.2999 6.17929 25.1544C4.625 23.4395 4.625 20.793 4.625 15.5V15.5Z" stroke="white" stroke-width="3"/>
<path d="M18.5 10.3333L18.5 20.6666" stroke="white" stroke-width="3" stroke-linecap="square" stroke-linejoin="round"/>
<path d="M24.6667 15.5L12.3334 15.5" stroke="white" stroke-width="3" stroke-linecap="square" stroke-linejoin="round"/>
</svg>
