<svg width="36" height="31" viewBox="0 0 36 31" fill="none" xmlns="http://www.w3.org/2000/svg">
<path d="M4.5 15.5C4.5 10.207 4.5 7.56054 6.05429 5.84565C6.18618 5.70013 6.32513 5.56118 6.47065 5.42929C8.18554 3.875 10.832 3.875 16.125 3.875H19.875C25.168 3.875 27.8145 3.875 29.5294 5.42929C29.6749 5.56118 29.8138 5.70013 29.9457 5.84565C31.5 7.56054 31.5 10.207 31.5 15.5V15.5C31.5 20.793 31.5 23.4395 29.9457 25.1544C29.8138 25.2999 29.6749 25.4388 29.5294 25.5707C27.8145 27.125 25.168 27.125 19.875 27.125H16.125C10.832 27.125 8.18554 27.125 6.47065 25.5707C6.32513 25.4388 6.18618 25.2999 6.05429 25.1544C4.5 23.4395 4.5 20.793 4.5 15.5V15.5Z" stroke="white" stroke-width="3"/>
<path d="M24.0001 15.5L12.0001 15.5" stroke="white" stroke-width="3" stroke-linecap="square" stroke-linejoin="round"/>
</svg>
