<svg width="44" height="36" viewBox="0 0 44 36" fill="none" xmlns="http://www.w3.org/2000/svg">
<g clip-path="url(#clip0_124_652)">
<g clip-path="url(#clip1_124_652)">
<path d="M10.829 6.25512C10.7696 6.09642 10.6398 5.96432 10.4679 5.8875C10.2961 5.81067 10.0959 5.79532 9.91098 5.84478C9.72603 5.89425 9.57121 6.00453 9.48012 6.15168C9.38904 6.29884 9.36904 6.47099 9.42446 6.63077C9.58017 7.06935 9.83485 8.337 9.14618 8.92686C8.53288 9.45182 7.09744 9.80753 6.59627 9.90017C6.41049 9.93946 6.24978 10.0395 6.1482 10.1791C6.04662 10.3187 6.01216 10.4868 6.05213 10.6479C6.0921 10.809 6.20334 10.9503 6.36229 11.042C6.52124 11.1337 6.7154 11.1684 6.9036 11.1389C7.13104 11.0971 9.15436 10.7058 10.1839 9.82512C11.6475 8.57154 10.8635 6.34894 10.829 6.25512Z" fill="#002844"/>
<path d="M43.2126 23.4253C43.061 23.0454 42.7405 22.1526 42.6688 21.5397C42.6529 21.397 42.8218 21.0065 42.9579 20.6918C43.3819 19.7115 44.0234 18.2308 43.238 16.4515C42.509 14.7976 41.2538 13.698 40.3849 13.0906C40.9097 12.7052 41.3791 12.0571 41.1661 10.7808C40.6754 7.83663 40.2587 7.28313 37.1113 5.39865C36.8263 5.23381 36.5389 5.07197 36.2493 4.91317C35.1325 4.29243 33.264 3.25345 32.4627 2.67454C30.7685 1.45027 27.6094 0.535196 25.7831 1.18056C22.9595 2.17693 22.4878 5.54289 22.4687 5.68556C22.4678 5.69025 22.4696 5.69494 22.4687 5.70003C22.4675 5.7042 22.4666 5.7085 22.466 5.71293C22.3018 7.80892 22.1462 9.9054 21.9993 12.0023C21.7628 8.63092 21.5531 5.97013 21.5331 5.71293C21.5322 5.70876 21.5314 5.70446 21.5308 5.70003L21.5304 5.68556C21.5113 5.5425 21.0401 2.17654 18.2183 1.18095C16.392 0.536369 13.2337 1.45027 11.5414 2.67493C10.7406 3.25384 8.87341 4.29243 7.75756 4.91317C7.3499 5.14027 7.03576 5.315 6.89548 5.39904C3.74951 7.28352 3.33277 7.83663 2.84158 10.7812C2.62868 12.0575 3.09762 12.7052 3.62286 13.091C2.75397 13.698 1.50012 14.798 0.771054 16.4518C-0.0133955 18.2312 0.627148 19.7119 1.0516 20.6922C1.18734 21.0069 1.35621 21.3974 1.33987 21.5401C1.26179 22.2147 0.90225 23.1572 0.796022 23.4269C0.413785 23.9397 -0.856407 26.1791 2.58691 29.8848C3.73544 31.1208 4.99428 31.0391 6.10559 30.9668C6.96993 30.9097 7.78662 30.8569 8.72451 31.3721C9.14805 31.6051 9.2679 31.98 9.44268 32.6214C9.67828 33.4864 10.0006 34.6716 11.7765 35.3725C12.8243 35.7868 13.7431 35.942 14.5784 35.942C15.8808 35.942 16.9812 35.5632 18.0598 35.1927L18.1765 35.152C20.7841 34.2573 21.1413 32.612 21.1867 32.0495C21.5236 31.7603 21.7914 31.473 21.9993 31.1821C22.2072 31.473 22.4755 31.7603 22.8128 32.0495C22.8578 32.6116 23.215 34.2577 25.824 35.152L25.9406 35.1927C27.0197 35.564 28.1206 35.942 29.4239 35.942C30.2597 35.942 31.1785 35.7861 32.2285 35.3725C34.004 34.6716 34.3272 33.4864 34.5632 32.6214C34.738 31.9796 34.8565 31.6047 35.2814 31.3721C36.2197 30.8569 37.0369 30.9097 37.9017 30.9668C39.0125 31.0399 40.2723 31.1216 41.4217 29.8852C44.8687 26.1768 43.5935 23.9366 43.2126 23.4253ZM26.3415 2.35283C27.4891 1.94709 30.0536 2.58737 31.5162 3.64551C32.3883 4.27562 34.3063 5.34119 35.4507 5.97795C35.8384 6.19372 36.1371 6.35868 36.271 6.4392C39.0865 8.12511 39.2795 8.3788 39.7103 10.9614C39.8733 11.9386 39.5214 12.1126 38.9907 12.3756C38.8768 12.4315 38.7683 12.4863 38.6988 12.5285C38.1863 12.7189 35.3908 12.5187 34.7643 12.1818C34.6825 12.1377 34.5913 12.1079 34.4961 12.0942C34.4008 12.0805 34.3034 12.083 34.2093 12.1017C34.1152 12.1204 34.0263 12.1549 33.9477 12.2032C33.8691 12.2514 33.8023 12.3126 33.7511 12.3831C33.6999 12.4536 33.6654 12.5321 33.6494 12.6141C33.6335 12.6961 33.6364 12.78 33.6581 12.861C33.6798 12.942 33.7199 13.0186 33.7759 13.0863C33.832 13.1539 33.903 13.2115 33.9849 13.2555C34.5982 13.5855 36.3528 13.8661 37.761 13.8661C38.175 13.8661 38.5572 13.8407 38.8732 13.786C38.9472 13.8137 39.0234 13.8348 39.1029 13.8411C39.7684 14.2504 41.1339 15.2491 41.863 16.9022C42.4513 18.2351 41.9674 19.3523 41.5793 20.2501C41.3777 20.7157 41.2106 21.1238 41.2079 21.5131C41.1423 21.5702 41.09 21.6376 41.054 21.7117C39.8233 24.2642 38.3084 26.6064 37.6965 26.916C36.8748 26.8339 36.7795 26.5333 36.6388 25.723C36.5089 24.9744 36.2901 23.722 34.3399 23.722C33.8324 23.722 33.3521 23.8115 32.9163 23.9464C33.0234 23.6993 33.1286 23.4545 33.2318 23.2119C33.4492 22.6979 33.6562 22.2128 33.8414 21.8688C34.2178 21.1711 34.6763 20.7919 35.2446 20.7102C36.429 20.5359 37.9525 21.6327 38.4428 22.0697C38.5793 22.1854 38.7627 22.2508 38.9543 22.2519C39.1458 22.253 39.3303 22.1897 39.4685 22.0756C39.6067 21.9615 39.6878 21.8054 39.6946 21.6406C39.7013 21.4758 39.6332 21.3152 39.5046 21.193C39.2708 20.9834 37.1581 19.1537 35.0049 19.4601C33.9363 19.6138 33.096 20.2443 32.5072 21.3356C32.2952 21.7273 32.0796 22.2374 31.8508 22.7765C31.7509 23.0098 31.6429 23.2651 31.5267 23.5281C30.8035 22.9879 30.1089 22.9062 29.6336 22.8531C29.4348 22.8316 29.246 22.8105 29.1996 22.7675C28.8292 22.4207 29.61 21.4693 30.1443 20.9975C31.4781 20.417 33.2722 19.5305 33.772 18.3613C35.4585 18.3203 38.8346 17.34 39.6603 15.4965C39.7302 15.3397 39.7251 15.1655 39.646 15.012C39.567 14.8585 39.4205 14.7383 39.2386 14.6776C39.0565 14.6173 38.854 14.6217 38.6757 14.6898C38.4973 14.7578 38.3575 14.8841 38.2871 15.0407C37.7787 16.1763 35.1234 17.0984 33.6594 17.0984C33.6303 17.0984 33.5963 17.0855 33.565 17.0765C33.5233 17.0534 33.4791 17.034 33.4329 17.0186C32.628 16.5496 31.3274 13.9118 31.208 12.6133C31.1435 11.9234 31.3855 11.4117 31.6179 10.9172C31.7636 10.6088 31.9012 10.3172 31.9575 9.99943C32.0919 9.24853 31.4486 8.75132 30.932 8.35143C30.6687 8.14739 30.3949 7.93592 30.2833 7.74282C29.7894 6.89263 31.2057 6.17222 31.2656 6.14212C31.4345 6.05875 31.5581 5.92112 31.6094 5.75941C31.6606 5.5977 31.6353 5.42509 31.5389 5.27943C31.4913 5.20708 31.4275 5.14353 31.3512 5.09245C31.275 5.04136 31.1878 5.00374 31.0946 4.98173C31.0015 4.95973 30.9042 4.95377 30.8083 4.96421C30.7125 4.97464 30.62 5.00127 30.5361 5.04255C29.6032 5.49989 28.0747 6.77185 28.9677 8.30922C29.2046 8.71731 29.6005 9.02298 29.9491 9.29348C30.0063 9.33804 30.0749 9.39081 30.1443 9.44671C29.7453 9.38026 29.1515 9.20318 28.752 9.08357C27.643 8.75053 26.5953 8.43626 25.8421 8.75796C25.6877 8.82359 25.5505 8.91563 25.4388 9.02848C25.3271 9.14132 25.2433 9.27259 25.1925 9.41426C24.8062 10.4364 25.7059 11.5989 26.499 12.6254C26.8499 13.0792 27.2481 13.5937 27.3234 13.863C27.5232 14.576 27.4605 15.1185 27.1364 15.4766C26.6161 16.052 25.5371 16.0715 25.5144 16.0719C25.3193 16.0723 25.1323 16.1395 24.9947 16.2585C24.8571 16.3776 24.7801 16.5389 24.7805 16.7069C24.781 16.8749 24.859 17.0359 24.9973 17.1544C25.1356 17.2729 25.3229 17.3392 25.518 17.3388C25.5906 17.3388 27.3175 17.3263 28.2885 16.2646C28.9087 15.586 29.0657 14.678 28.7539 13.5659C28.6172 13.0781 28.2032 12.5429 27.7238 11.9234C27.2363 11.2925 26.5131 10.3579 26.5721 9.88529C26.9139 9.88451 27.7515 10.1245 28.2677 10.2793C28.9268 10.4775 29.5633 10.6635 30.128 10.7163C29.8997 11.2268 29.6641 11.882 29.7417 12.7134C29.8252 13.6136 30.8208 16.727 32.4087 17.906C32.2094 18.4696 31.0468 19.2045 28.9436 20.0969C28.5537 20.2622 28.3748 20.3385 28.25 20.4202C28.2284 20.4358 28.2032 20.4474 28.176 20.4541C28.1489 20.4607 28.1204 20.4624 28.0924 20.4589C28.0193 20.4456 27.9345 20.3729 27.8591 20.2611C27.8078 20.1829 27.7737 20.0164 27.7415 19.8542C27.633 19.3112 27.4069 18.1827 25.483 18.1827C24.473 18.1827 23.6318 18.9805 22.9713 19.9906C23.2623 14.5377 23.7825 7.73813 23.9073 6.14486C24.4203 6.33444 25.1748 6.55139 25.9488 6.55139C26.2734 6.55139 26.6012 6.51308 26.9162 6.41887C27.6062 6.21131 28.1242 5.76218 28.417 5.11955C28.4801 4.96468 28.4709 4.79478 28.3914 4.64562C28.3119 4.49646 28.1683 4.37968 27.9908 4.31985C27.8133 4.26003 27.6158 4.26184 27.4399 4.32489C27.2639 4.38795 27.1232 4.50733 27.0474 4.65791C26.8676 5.05115 26.6107 5.16842 26.4327 5.22236C25.7509 5.42758 24.6895 5.07538 24.1847 4.85922C24.4866 3.99066 25.1135 2.78594 26.3415 2.35283ZM2.1452 16.9014C2.86928 15.2592 4.24297 14.2527 4.90712 13.8407C4.98611 13.8341 5.06102 13.8137 5.1332 13.7864C5.44915 13.8407 5.83048 13.8661 6.24495 13.8661C7.6536 13.8661 9.40681 13.5855 10.0197 13.2555C10.1812 13.165 10.295 13.0235 10.3366 12.8615C10.3782 12.6995 10.3443 12.5299 10.2422 12.3891C10.14 12.2484 9.97781 12.1479 9.79043 12.1091C9.60304 12.0703 9.40547 12.0964 9.24021 12.1818C8.61465 12.5187 5.8205 12.7192 5.33884 12.5437C5.23351 12.4848 5.12602 12.4287 5.01653 12.3756C4.48539 12.1126 4.13447 11.9394 4.29745 10.9614C4.72826 8.37841 4.92119 8.12472 7.73532 6.43881C8.00682 6.28233 8.28043 6.12857 8.55608 5.97756C9.70053 5.3408 11.6163 4.27523 12.4874 3.64512C13.9496 2.58776 16.5114 1.94748 17.6603 2.35323C18.8978 2.79024 19.5211 3.99106 19.8194 4.85961C19.3214 5.07656 18.2623 5.43305 17.5714 5.2251C17.3925 5.17115 17.1351 5.05428 16.9553 4.65987C16.9218 4.58045 16.8702 4.50759 16.8036 4.44561C16.7369 4.38362 16.6565 4.33375 16.5671 4.29894C16.4777 4.26412 16.3811 4.24506 16.283 4.24289C16.1849 4.24072 16.0873 4.25547 15.9959 4.28628C15.9045 4.31708 15.8212 4.36333 15.7509 4.42228C15.6806 4.48123 15.6247 4.5517 15.5866 4.62953C15.5484 4.70737 15.5287 4.79099 15.5286 4.87549C15.5285 4.95998 15.5481 5.04363 15.5862 5.12151C15.8781 5.76413 16.397 6.21366 17.0874 6.42083C17.3984 6.51169 17.7251 6.5565 18.0535 6.55334C18.8266 6.55334 19.5806 6.3364 20.0936 6.14681C20.218 7.74086 20.7378 14.5396 21.0292 19.9917C20.3682 18.9821 19.5279 18.1843 18.5188 18.1843C16.5958 18.1843 16.3697 19.3128 16.2612 19.8557C16.229 20.0172 16.1954 20.1845 16.1436 20.2626C16.0687 20.3744 15.9838 20.4471 15.9103 20.4604C15.864 20.4694 15.805 20.4546 15.7546 20.4217C15.6288 20.34 15.4509 20.2638 15.0605 20.0985C12.9573 19.2061 11.7965 18.4704 11.5972 17.9071C13.1838 16.7278 14.1798 13.6156 14.2633 12.7149C14.34 11.8835 14.1053 11.2284 13.877 10.7179C14.4417 10.6651 15.0773 10.479 15.736 10.2809C16.2521 10.1261 17.0915 9.88841 17.4302 9.88685C17.4887 10.3594 16.7665 11.2944 16.2789 11.925C15.8004 12.5445 15.3869 13.0796 15.2498 13.5675C14.9379 14.6799 15.095 15.5876 15.7156 16.267C16.6861 17.3278 18.4116 17.3403 18.4847 17.3403C18.6767 17.3362 18.8592 17.2677 18.9932 17.1494C19.1273 17.031 19.2023 16.8722 19.2023 16.7069C19.2023 16.5416 19.1273 16.3828 18.9932 16.2645C18.8592 16.1461 18.6767 16.0776 18.4847 16.0735C18.4743 16.0735 17.3875 16.0485 16.8713 15.4832C16.544 15.1248 16.4791 14.5803 16.6798 13.8649C16.7556 13.5948 17.1528 13.0808 17.5033 12.627C18.2963 11.6005 19.1952 10.4376 18.8093 9.41583C18.7582 9.27422 18.6743 9.14303 18.5625 9.03021C18.4508 8.91739 18.3136 8.8253 18.1592 8.75952C17.407 8.43782 16.3593 8.7521 15.2507 9.08513C14.8508 9.20514 14.2583 9.38221 13.8602 9.44827C13.9292 9.39237 13.9982 9.3396 14.0554 9.29465C14.404 9.02455 14.799 8.71887 15.036 8.31078C15.9289 6.77302 14.4013 5.50145 13.4684 5.04411C13.2992 4.96066 13.0983 4.93853 12.9101 4.98258C12.7218 5.02664 12.5616 5.13328 12.4647 5.27904C12.3678 5.4248 12.3421 5.59774 12.3933 5.75982C12.4444 5.9219 12.5683 6.05984 12.7375 6.1433C12.7984 6.17339 14.2138 6.89341 13.7199 7.74399C13.6083 7.93709 13.3354 8.14856 13.0717 8.35261C12.5546 8.7521 11.9122 9.2497 12.0466 10.001C12.1038 10.3184 12.2409 10.61 12.3862 10.9188C12.6195 11.4137 12.8601 11.925 12.7966 12.6145C12.6767 13.9126 11.3779 16.5496 10.5726 17.0194C10.526 17.0356 10.4818 17.055 10.44 17.0777C10.4087 17.0867 10.376 17.0996 10.3461 17.0996C8.88339 17.0996 6.22861 16.1774 5.72017 15.0419C5.64998 14.8852 5.51034 14.7588 5.33199 14.6907C5.15363 14.6226 4.95116 14.6183 4.76912 14.6788C4.58707 14.7392 4.44037 14.8594 4.36128 15.013C4.28219 15.1666 4.27719 15.3409 4.34738 15.4977C5.17269 17.3407 8.54746 18.3211 10.2335 18.3625C10.7328 19.5317 12.5274 20.4182 13.8607 20.9991C14.3959 21.4693 15.1776 22.4196 14.8031 22.7686C14.7572 22.8112 14.5693 22.8327 14.37 22.8542C13.8947 22.9074 13.2001 22.9891 12.4783 23.5289C12.3684 23.2791 12.2605 23.0287 12.1547 22.7776C11.9254 22.2386 11.7093 21.7293 11.4978 21.3368C10.9099 20.2454 10.0696 19.6149 9.00097 19.4613C6.84873 19.1541 4.73643 20.9842 4.50264 21.1949C4.37564 21.3174 4.30883 21.4776 4.31628 21.6417C4.32374 21.8057 4.40489 21.9609 4.54262 22.0745C4.68035 22.1881 4.86391 22.2512 5.05461 22.2505C5.24532 22.2498 5.42827 22.1854 5.56492 22.0709C6.01706 21.664 7.57643 20.5355 8.75946 20.711C9.32737 20.7923 9.78724 21.1711 10.1636 21.87C10.3492 22.214 10.5549 22.6987 10.7728 23.2127C10.8757 23.4556 10.9809 23.7005 11.0883 23.9476C10.6534 23.8127 10.1727 23.7232 9.66512 23.7232C7.71534 23.7232 7.49744 24.9756 7.36715 25.7242C7.22597 26.5341 7.13155 26.8351 6.31032 26.9172C5.69883 26.6076 4.18532 24.2654 2.95462 21.7128C2.91871 21.6385 2.86645 21.5708 2.80073 21.5135C2.79755 21.1245 2.63049 20.7169 2.42984 20.2513C2.04034 19.3523 1.55732 18.2347 2.1452 16.9014ZM19.9628 31.308C19.3241 31.8103 18.6522 32.0245 17.915 31.9608C15.9162 31.7912 14.1076 29.714 14.0722 29.6725C14.0158 29.604 13.9441 29.5458 13.8613 29.5014C13.7785 29.457 13.6863 29.4271 13.59 29.4137C13.4937 29.4002 13.3953 29.4034 13.3004 29.423C13.2056 29.4427 13.1162 29.4783 13.0375 29.528C12.9588 29.5777 12.8924 29.6403 12.8421 29.7123C12.7918 29.7842 12.7587 29.8641 12.7446 29.9472C12.7305 30.0303 12.7357 30.115 12.76 30.1964C12.7843 30.2777 12.8271 30.3541 12.886 30.4211C12.9754 30.5262 15.1022 32.9924 17.7652 33.2214C17.9014 33.2329 18.0361 33.2386 18.1692 33.2386C18.4879 33.2386 18.798 33.2015 19.1008 33.1354C18.7912 33.4348 18.3295 33.737 17.6326 33.9758L17.5146 34.0165C15.83 34.5958 14.4989 35.0531 12.3884 34.2201C11.2681 33.7781 11.0937 33.1397 10.874 32.3321C10.682 31.6254 10.4641 30.8257 9.51531 30.3042C8.16522 29.5619 6.96131 29.6401 5.99391 29.7026C4.99746 29.7675 4.39823 29.807 3.73499 29.0932C0.663011 25.7867 1.98268 24.1676 2.0308 24.1106L2.15111 23.9261C2.15791 23.9093 2.21239 23.7767 2.28775 23.5743C3.89433 26.6377 5.23398 28.1879 6.279 28.1879C6.30654 28.1877 6.33378 28.1866 6.36071 28.1848C8.4544 28.0191 8.68456 26.699 8.8212 25.911C8.96193 25.1046 9.02412 24.9885 9.66467 24.9885C10.7728 24.9885 11.7792 25.68 12.1215 25.9423C12.6404 26.7323 13.266 27.3514 14.0754 27.5715C15.1967 27.8756 15.7628 27.797 16.4796 27.6981C16.5858 27.6837 16.6979 27.668 16.8196 27.6528C17.3889 27.5801 17.8147 27.6571 18.1238 27.885C18.6454 28.2692 18.7671 29.0487 18.7698 29.3133C18.7698 29.4813 18.8473 29.6423 18.9852 29.7611C19.1231 29.8798 19.3102 29.9465 19.5052 29.9465C19.7003 29.9465 19.8874 29.8798 20.0253 29.7611C20.1632 29.6423 20.2407 29.4813 20.2407 29.3133C20.2407 29.1566 20.208 27.7619 19.0894 26.9297C18.6473 26.6005 17.8569 26.2409 16.6062 26.3992C16.4769 26.416 16.3579 26.4324 16.2453 26.4477C15.5998 26.5372 15.3065 26.5782 14.5175 26.3636C14.1072 26.2522 13.7158 25.8148 13.3581 25.248L13.3745 25.2363C13.3608 25.2195 13.0462 24.8185 13.2996 24.5941C13.7453 24.1993 14.1217 24.1575 14.5566 24.1094C14.9661 24.064 15.4745 24.007 15.8831 23.6259C16.4891 23.0602 16.4628 22.3617 16.1641 21.7031C16.1781 21.7011 16.1922 21.7019 16.2063 21.6999C16.6997 21.6112 17.1306 21.3239 17.4184 20.89C17.5991 20.6191 17.6572 20.3275 17.7089 20.0695C17.8142 19.5446 17.8328 19.4496 18.517 19.4496C19.2819 19.4496 20.5439 21.7789 21.1985 23.9163C21.2199 24.6371 21.2299 25.2703 21.2253 25.7843C21.2199 26.3816 21.2344 26.9164 21.2467 27.3878C21.2998 29.4059 21.3211 30.2405 19.9628 31.308ZM40.2727 29.0936C39.6086 29.8074 39.0084 29.7679 38.0125 29.703C37.0451 29.6401 35.8407 29.5619 34.4897 30.3042C33.5395 30.8257 33.3226 31.6258 33.1301 32.3321C32.9104 33.1401 32.736 33.7784 31.6143 34.2205C29.5029 35.0551 28.171 34.5962 26.4854 34.0165L26.3678 33.9758C25.6701 33.737 25.2084 33.4345 24.8988 33.1354C25.3349 33.2327 25.7877 33.2618 26.2357 33.2214C28.8996 32.9924 31.0278 30.5258 31.1167 30.4215C31.1739 30.3544 31.2152 30.2783 31.2382 30.1975C31.2612 30.1167 31.2654 30.0328 31.2508 29.9506C31.2361 29.8684 31.2028 29.7895 31.1527 29.7183C31.1026 29.6472 31.0367 29.5853 30.9588 29.5361C30.8012 29.437 30.6045 29.3958 30.4117 29.4213C30.2189 29.4469 30.0457 29.5372 29.9301 29.6725C29.4298 30.2604 27.7647 31.817 26.0891 31.9608C25.3455 32.0273 24.6768 31.8115 24.0367 31.3084C22.6766 30.2413 22.6989 29.4067 22.752 27.3893C22.7643 26.9175 22.7783 26.3832 22.7729 25.7855C22.7688 25.2711 22.7788 24.6375 22.8001 23.9171C23.4534 21.7797 24.7158 19.4508 25.483 19.4508C26.1676 19.4508 26.1862 19.5457 26.2916 20.0715C26.3429 20.3283 26.401 20.6199 26.5821 20.8912C26.8699 21.3251 27.3003 21.6124 27.7937 21.7011C27.8082 21.7031 27.8223 21.7023 27.8368 21.7042C27.5377 22.3629 27.5114 23.0614 28.1183 23.627C28.5273 24.0085 29.0358 24.0652 29.4448 24.1106C29.8806 24.1586 30.2569 24.2005 30.7032 24.5953C30.9565 24.8192 30.6414 25.2207 30.6328 25.2328L30.6482 25.2441C30.2896 25.8133 29.8969 26.2522 29.4852 26.3644C28.6953 26.579 28.4011 26.538 27.7556 26.4485C27.643 26.4332 27.5241 26.4168 27.3947 26.4C26.1427 26.2433 25.3523 26.6017 24.9101 26.9308C23.7916 27.763 23.7593 29.1569 23.7593 29.3141C23.7593 29.482 23.8368 29.6431 23.9747 29.7619C24.1127 29.8806 24.2997 29.9473 24.4948 29.9473C24.6898 29.9473 24.8769 29.8806 25.0148 29.7619C25.1527 29.6431 25.2302 29.482 25.2302 29.3141C25.2302 29.0678 25.3487 28.279 25.8721 27.8889C26.1817 27.6591 26.6089 27.5801 27.1813 27.6536C27.303 27.6692 27.4165 27.6843 27.5218 27.6989C28.24 27.7986 28.8056 27.8764 29.9269 27.5723C30.7381 27.3526 31.3623 26.7334 31.8821 25.9431C32.2267 25.6784 33.2322 24.9893 34.3394 24.9893C34.9804 24.9893 35.0435 25.1054 35.1838 25.9118C35.3214 26.7006 35.5515 28.0202 37.6452 28.1856C37.6724 28.1874 37.6997 28.1885 37.7269 28.1887C38.7733 28.1883 40.1134 26.6381 41.7209 23.5743C41.7962 23.7779 41.8512 23.91 41.858 23.9268L41.9783 24.1113C41.9924 24.1266 43.3606 25.7718 40.2727 29.0936Z" fill="#002844"/>
<path d="M37.1019 11.1388C37.1539 11.1482 37.2054 11.1529 37.2562 11.1529C37.4375 11.1522 37.6121 11.0939 37.7465 10.9892C37.8809 10.8845 37.9658 10.7408 37.9847 10.5855C38.0037 10.4303 37.9554 10.2745 37.8492 10.148C37.743 10.0215 37.5863 9.93324 37.4092 9.90009C36.9425 9.81448 35.4717 9.45213 34.8588 8.92677C34.1688 8.33692 34.4239 7.06965 34.5792 6.63263C34.6084 6.55319 34.6191 6.46956 34.6107 6.38654C34.6023 6.30352 34.575 6.22275 34.5303 6.14885C34.4855 6.07495 34.4243 6.00937 34.3501 5.95588C34.2759 5.9024 34.1901 5.86205 34.0978 5.83715C34.0054 5.81225 33.9083 5.8033 33.8119 5.8108C33.7155 5.8183 33.6218 5.8421 33.5361 5.88085C33.4504 5.9196 33.3745 5.97253 33.3126 6.03661C33.2507 6.10068 33.2041 6.17465 33.1755 6.25425C33.141 6.34846 32.3566 8.57067 33.8215 9.82504C34.8506 10.7057 36.8749 11.097 37.1019 11.1388Z" fill="#002844"/>
</g>
</g>
<defs>
<clipPath id="clip0_124_652">
<rect width="43.5094" height="34.9744" fill="white" transform="translate(0.25 0.967651)"/>
</clipPath>
<clipPath id="clip1_124_652">
<rect width="43.5094" height="34.9744" fill="white" transform="translate(0.25 0.967651)"/>
</clipPath>
</defs>
</svg>
