<svg width="72" height="30" viewBox="0 0 72 30" fill="none" xmlns="http://www.w3.org/2000/svg">
<g clip-path="url(#clip0_124_643)">
<g clip-path="url(#clip1_124_643)">
<g clip-path="url(#clip2_124_643)">
<g clip-path="url(#clip3_124_643)">
<path d="M16.1149 14.0809C18.2548 14.5944 19.8158 15.4855 20.798 16.7541C21.7802 18.0227 22.2713 19.4574 22.2713 21.0583C22.2713 23.2029 21.4996 24.9759 19.9561 26.3774C18.4126 27.785 15.7817 28.4888 12.0633 28.4888H0.802979V0.7152H10.5374C14.1856 0.7152 16.8095 1.36461 18.4091 2.66343C20.0017 3.96225 20.798 5.68394 20.798 7.8285C20.798 9.21793 20.4402 10.4624 19.7246 11.5618C19.0019 12.6673 17.7987 13.507 16.1149 14.0809ZM6.17006 2.43689V13.4013H10.1691C12.0633 13.4013 13.4139 12.8969 14.2207 11.8881C15.0275 10.8732 15.4309 9.53508 15.4309 7.8738C15.4309 6.0917 14.9924 4.73852 14.1154 3.81424C13.2385 2.89601 11.923 2.43689 10.1691 2.43689H6.17006ZM11.5371 26.7671C15.1152 26.7671 16.9042 24.8642 16.9042 21.0583C16.9042 19.397 16.4482 17.9925 15.5361 16.8447C14.6241 15.6969 13.2911 15.123 11.5371 15.123H6.17006V26.7671H11.5371ZM23.9551 0.7152H46.4758V3.02589H37.9516V28.4888H32.5845V3.02589H23.9551V0.7152ZM59.9987 0.171509C63.2962 0.171509 65.8394 0.842061 67.6284 2.18317C69.4174 3.53031 70.5224 5.59332 70.9434 8.37219L66.576 8.87057C66.4006 6.69581 65.7412 5.01942 64.5976 3.84142C63.461 2.66343 61.9281 2.07443 59.9987 2.07443C57.9291 2.07443 56.34 2.50334 55.2315 3.36117C54.13 4.22503 53.5793 5.44229 53.5793 7.01296C53.5793 8.4628 54.0248 9.55623 54.9158 10.2932C55.8138 11.0363 57.4204 11.6645 59.7356 12.178L62.6297 12.8123C65.7517 13.5675 67.9617 14.5642 69.2596 15.8026C70.5575 17.041 71.2065 18.7627 71.2065 20.9677C71.2065 23.5653 70.2242 25.5589 68.2598 26.9483C66.2954 28.3377 63.4891 29.0325 59.8409 29.0325C56.3681 29.0325 53.7091 28.3589 51.8639 27.0117C50.0258 25.6706 48.9138 23.6106 48.5279 20.8318L52.79 20.2881C53.0706 22.4629 53.8073 24.1392 55 25.3172C56.1927 26.4952 57.8063 27.0842 59.8409 27.0842C64.4011 27.0842 66.6813 25.423 66.6813 22.1004C66.6813 21.1036 66.4883 20.3032 66.1025 19.6991C65.7166 19.095 65.0747 18.5875 64.1766 18.1768C63.2856 17.772 61.9807 17.3884 60.2618 17.0259L57.5783 16.4369C54.4563 15.7422 52.2708 14.7666 51.022 13.5101C49.7802 12.2596 49.1593 10.4865 49.1593 8.19096C49.1593 5.56312 50.0784 3.56958 51.9165 2.21035C53.7617 0.851123 56.4558 0.171509 59.9987 0.171509Z" fill="#002844"/>
</g>
</g>
</g>
</g>
<defs>
<clipPath id="clip0_124_643">
<rect width="70.4035" height="28.8609" fill="white" transform="translate(0.802979 0.171509)"/>
</clipPath>
<clipPath id="clip1_124_643">
<rect width="70.4035" height="28.8609" fill="white" transform="translate(0.802979 0.171509)"/>
</clipPath>
<clipPath id="clip2_124_643">
<rect width="70.4035" height="28.8609" fill="white" transform="translate(0.802979 0.171509)"/>
</clipPath>
<clipPath id="clip3_124_643">
<rect width="70.4035" height="28.8609" fill="white" transform="translate(0.802979 0.171509)"/>
</clipPath>
</defs>
</svg>
