<svg width="71" height="25" viewBox="0 0 71 25" fill="none" xmlns="http://www.w3.org/2000/svg">
<g clip-path="url(#clip0_3_29)">
<g clip-path="url(#clip1_3_29)">
<g clip-path="url(#clip2_3_29)">
<g clip-path="url(#clip3_3_29)">
<path d="M16.0186 12.1298C18.128 12.5411 19.6668 13.2548 20.6351 14.271C21.6033 15.2872 22.0874 16.4364 22.0874 17.7187C22.0874 19.4365 21.3267 20.8567 19.8051 21.9793C18.2836 23.1067 15.6901 23.6705 12.0246 23.6705H0.924316V1.42384H10.5203C14.1167 1.42384 16.7033 1.94401 18.2802 2.98437C19.8501 4.02472 20.6351 5.4038 20.6351 7.12159C20.6351 8.23453 20.2824 9.23133 19.5769 10.112C18.8646 10.9975 17.6785 11.6701 16.0186 12.1298ZM6.2151 2.80291V11.5854H10.1573C12.0246 11.5854 13.3559 11.1814 14.1513 10.3733C14.9466 9.56037 15.3443 8.48856 15.3443 7.15788C15.3443 5.73042 14.912 4.64651 14.0475 3.90617C13.183 3.17066 11.8863 2.80291 10.1573 2.80291H6.2151ZM11.5059 22.2914C15.0331 22.2914 16.7967 20.7672 16.7967 17.7187C16.7967 16.388 16.3471 15.263 15.448 14.3436C14.5489 13.4242 13.2349 12.9645 11.5059 12.9645H6.2151V22.2914H11.5059ZM23.7473 1.42384H45.9478V3.2747H37.5448V23.6705H32.2541V3.2747H23.7473V1.42384ZM59.2785 0.988341C62.5291 0.988341 65.0362 1.52545 66.7998 2.59968C68.5633 3.67874 69.6526 5.33121 70.0676 7.55708L65.7623 7.95629C65.5894 6.2143 64.9393 4.87152 63.812 3.92794C62.6916 2.98437 61.1805 2.51258 59.2785 2.51258C57.2383 2.51258 55.6718 2.85614 54.5791 3.54326C53.4933 4.23521 52.9504 5.21024 52.9504 6.46834C52.9504 7.62967 53.3895 8.5055 54.2679 9.09584C55.1531 9.69102 56.7369 10.1943 59.0192 10.6056L61.8721 11.1136C64.9497 11.7185 67.1283 12.5169 68.4077 13.5089C69.6872 14.5008 70.3269 15.8799 70.3269 17.6461C70.3269 19.7268 69.3587 21.3236 67.4222 22.4366C65.4857 23.5495 62.7193 24.106 59.1229 24.106C55.6995 24.106 53.0783 23.5664 51.2594 22.4874C49.4474 21.4131 48.3512 19.7631 47.9708 17.5372L52.1723 17.1017C52.4489 18.8437 53.1751 20.1865 54.3509 21.1301C55.5266 22.0736 57.1173 22.5454 59.1229 22.5454C63.6184 22.5454 65.8661 21.2148 65.8661 18.5534C65.8661 17.755 65.6759 17.1138 65.2955 16.6299C64.9151 16.1461 64.2823 15.7396 63.3971 15.4105C62.5187 15.0863 61.2323 14.7791 59.5379 14.4887L56.8925 14.017C53.8149 13.4605 51.6605 12.679 50.4294 11.6725C49.2053 10.6709 48.5932 9.25068 48.5932 7.41192C48.5932 5.30702 49.4992 3.7102 51.3112 2.62145C53.1302 1.53271 55.7859 0.988341 59.2785 0.988341Z" fill="#002844"/>
</g>
</g>
</g>
</g>
<defs>
<clipPath id="clip0_3_29">
<rect width="69.4026" height="23.1176" fill="white" transform="translate(0.924316 0.988338)"/>
</clipPath>
<clipPath id="clip1_3_29">
<rect width="69.4026" height="23.1176" fill="white" transform="translate(0.924316 0.988338)"/>
</clipPath>
<clipPath id="clip2_3_29">
<rect width="69.4026" height="23.1176" fill="white" transform="translate(0.924316 0.988338)"/>
</clipPath>
<clipPath id="clip3_3_29">
<rect width="69.4026" height="23.1176" fill="white" transform="translate(0.924316 0.988338)"/>
</clipPath>
</defs>
</svg>
