<svg width="44" height="29" viewBox="0 0 44 29" fill="none" xmlns="http://www.w3.org/2000/svg">
<g clip-path="url(#clip0_3_38)">
<g clip-path="url(#clip1_3_38)">
<path d="M10.6089 5.2093C10.5502 5.08218 10.4223 4.97637 10.2529 4.91483C10.0835 4.85329 9.88617 4.841 9.70385 4.88062C9.52154 4.92024 9.36891 5.00857 9.27912 5.12644C9.18933 5.24431 9.16961 5.38221 9.22425 5.51019C9.37775 5.86149 9.6288 6.87689 8.94993 7.34936C8.34534 7.76986 6.93031 8.05478 6.43626 8.12898C6.25312 8.16045 6.0947 8.24058 5.99456 8.35239C5.89443 8.46419 5.86046 8.59888 5.89986 8.72791C5.93926 8.85694 6.04892 8.97017 6.20561 9.04359C6.3623 9.117 6.5537 9.14485 6.73923 9.12121C6.96343 9.08771 8.95798 8.77429 9.97294 8.06887C11.4157 7.06475 10.6429 5.28444 10.6089 5.2093Z" fill="#002844"/>
<path d="M42.532 18.9627C42.3826 18.6583 42.0666 17.9432 41.9959 17.4523C41.9803 17.338 42.1467 17.0252 42.281 16.7731C42.699 15.9879 43.3313 14.8018 42.5571 13.3766C41.8384 12.0519 40.601 11.1711 39.7445 10.6845C40.2618 10.3758 40.7245 9.85669 40.5147 8.83441C40.0309 6.47612 39.6201 6.03276 36.5175 4.52329C36.2365 4.39125 35.9532 4.26162 35.6677 4.13442C34.5668 3.63721 32.7248 2.80498 31.935 2.34128C30.2649 1.36064 27.1506 0.627663 25.3503 1.1446C22.5668 1.9427 22.1018 4.63883 22.083 4.75311C22.0821 4.75687 22.0839 4.76062 22.083 4.76469C22.0818 4.76803 22.0809 4.77148 22.0804 4.77503C21.9185 6.45391 21.7651 8.1332 21.6203 9.81285C21.3872 7.11234 21.1804 4.98105 21.1607 4.77503C21.1598 4.77169 21.1591 4.76824 21.1585 4.76469L21.158 4.75311C21.1392 4.63851 20.6747 1.94238 17.893 1.14491C16.0927 0.628602 12.9793 1.36064 11.311 2.34159C10.5216 2.80529 8.68099 3.63721 7.58101 4.13442C7.17915 4.31633 6.86947 4.45629 6.73119 4.5236C3.62994 6.03307 3.21912 6.47612 2.73492 8.83472C2.52504 9.857 2.98731 10.3758 3.50508 10.6848C2.64855 11.1711 1.41252 12.0522 0.693823 13.3769C-0.0794753 14.8022 0.551962 15.9882 0.970384 16.7734C1.10419 17.0255 1.27066 17.3383 1.25455 17.4526C1.17758 17.993 0.823153 18.7479 0.718436 18.9639C0.341632 19.3747 -0.910502 21.1685 2.48386 24.1367C3.61607 25.1267 4.85701 25.0613 5.95252 25.0034C6.80458 24.9576 7.60965 24.9154 8.53421 25.328C8.95173 25.5147 9.06988 25.8149 9.24217 26.3287C9.47443 27.0216 9.79216 27.971 11.5428 28.5323C12.5757 28.8642 13.4814 28.9885 14.3049 28.9885C15.5888 28.9885 16.6735 28.6851 17.7368 28.3883L17.8518 28.3558C20.4223 27.6391 20.7745 26.3212 20.8193 25.8707C21.1513 25.639 21.4154 25.4088 21.6203 25.1759C21.8253 25.4088 22.0897 25.639 22.4222 25.8707C22.4666 26.3209 22.8187 27.6394 25.3906 28.3558L25.5056 28.3883C26.5693 28.6858 27.6545 28.9885 28.9393 28.9885C29.7632 28.9885 30.669 28.8636 31.7041 28.5323C33.4543 27.971 33.7729 27.0216 34.0056 26.3287C34.1779 25.8146 34.2947 25.5143 34.7136 25.328C35.6386 24.9154 36.4441 24.9576 37.2966 25.0034C38.3917 25.0619 39.6335 25.1273 40.7666 24.137C44.1645 21.1666 42.9075 19.3722 42.532 18.9627ZM25.9007 2.08359C27.0321 1.75859 29.56 2.27145 31.0019 3.11902C31.8616 3.62375 33.7523 4.47727 34.8805 4.98731C35.2627 5.16014 35.5571 5.29227 35.6891 5.35677C38.4646 6.70719 38.6548 6.91039 39.0795 8.97906C39.2401 9.76182 38.8933 9.90115 38.3702 10.1119C38.2579 10.1566 38.1509 10.2005 38.0824 10.2343C37.5772 10.3868 34.8214 10.2265 34.2039 9.95657C34.1231 9.92127 34.0333 9.89744 33.9394 9.88644C33.8455 9.87544 33.7495 9.87748 33.6567 9.89246C33.564 9.90743 33.4763 9.93504 33.3988 9.97371C33.3213 10.0124 33.2555 10.0613 33.205 10.1178C33.1546 10.1743 33.1205 10.2372 33.1048 10.3028C33.0891 10.3685 33.092 10.4357 33.1134 10.5006C33.1348 10.5655 33.1742 10.6268 33.2295 10.6811C33.2848 10.7353 33.3548 10.7814 33.4355 10.8167C34.0401 11.0809 35.7697 11.3057 37.1579 11.3057C37.566 11.3057 37.9428 11.2854 38.2543 11.2415C38.3272 11.2638 38.4024 11.2807 38.4807 11.2857C39.1368 11.6135 40.4829 12.4135 41.2016 13.7376C41.7816 14.8053 41.3045 15.7001 40.9219 16.4193C40.7232 16.7922 40.5585 17.1191 40.5558 17.431C40.4911 17.4767 40.4396 17.5307 40.4041 17.59C39.1909 19.6346 37.6976 21.5107 37.0943 21.7587C36.2843 21.6929 36.1904 21.4521 36.0516 20.8031C35.9236 20.2035 35.7079 19.2003 33.7854 19.2003C33.2851 19.2003 32.8117 19.272 32.382 19.38C32.4877 19.1821 32.5913 18.986 32.6931 18.7917C32.9074 18.38 33.1115 17.9914 33.2941 17.7159C33.6651 17.157 34.117 16.8533 34.6773 16.7879C35.8449 16.6482 37.3467 17.5268 37.83 17.8768C37.9646 17.9695 38.1454 18.0219 38.3342 18.0227C38.523 18.0236 38.7049 17.973 38.8411 17.8815C38.9774 17.7901 39.0574 17.6651 39.064 17.5331C39.0707 17.4011 39.0035 17.2724 38.8768 17.1745C38.6463 17.0067 36.5636 15.5411 34.441 15.7865C33.3876 15.9096 32.5593 16.4146 31.9788 17.2888C31.7698 17.6025 31.5573 18.0111 31.3317 18.4429C31.2333 18.6298 31.1268 18.8343 31.0122 19.045C30.2993 18.6123 29.6146 18.5469 29.1461 18.5043C28.9501 18.4871 28.7639 18.4702 28.7183 18.4357C28.3531 18.158 29.1228 17.3959 29.6495 17.018C30.9643 16.553 32.7329 15.8429 33.2256 14.9064C34.8881 14.8735 38.2162 14.0883 39.0303 12.6117C39.0991 12.4861 39.0941 12.3466 39.0161 12.2236C38.9382 12.1006 38.7938 12.0043 38.6145 11.9557C38.435 11.9074 38.2354 11.9109 38.0596 11.9655C37.8837 12.02 37.746 12.1211 37.6765 12.2466C37.1753 13.1562 34.5578 13.8948 33.1146 13.8948C33.086 13.8948 33.0524 13.8844 33.0215 13.8772C32.9805 13.8587 32.9369 13.8432 32.8913 13.8309C32.0979 13.4552 30.8158 11.3424 30.6981 10.3022C30.6345 9.74961 30.873 9.33976 31.1022 8.94368C31.2458 8.69664 31.3814 8.46307 31.4369 8.20851C31.5694 7.60704 30.9352 7.20878 30.426 6.88847C30.1664 6.72503 29.8966 6.55564 29.7865 6.40097C29.2996 5.71997 30.6958 5.14292 30.7549 5.11881C30.9214 5.05203 31.0432 4.94179 31.0937 4.81226C31.1442 4.68273 31.1193 4.54447 31.0243 4.4278C30.9773 4.36984 30.9144 4.31894 30.8393 4.27802C30.7641 4.23711 30.6782 4.20697 30.5863 4.18934C30.4945 4.17171 30.3986 4.16694 30.3041 4.1753C30.2096 4.18366 30.1184 4.20499 30.0357 4.23805C29.1161 4.60439 27.6093 5.62322 28.4896 6.85466C28.7232 7.18154 29.1134 7.42638 29.4571 7.64305C29.5135 7.67874 29.5811 7.72101 29.6495 7.76579C29.2562 7.71256 28.6708 7.57072 28.277 7.47491C27.1838 7.20815 26.1509 6.95642 25.4085 7.2141C25.2563 7.26667 25.121 7.3404 25.0109 7.43078C24.9008 7.52117 24.8182 7.62632 24.7681 7.7398C24.3873 8.55856 25.2742 9.48973 26.056 10.3119C26.402 10.6755 26.7944 11.0875 26.8687 11.3032C27.0656 11.8743 27.0039 12.3089 26.6843 12.5957C26.1715 13.0566 25.1078 13.0723 25.0854 13.0726C24.8931 13.0729 24.7088 13.1267 24.5731 13.2221C24.4375 13.3175 24.3615 13.4466 24.362 13.5812C24.3625 13.7158 24.4393 13.8447 24.5757 13.9396C24.712 14.0345 24.8966 14.0877 25.089 14.0873C25.1606 14.0873 26.8629 14.0773 27.8201 13.2269C28.4314 12.6834 28.5863 11.956 28.2788 11.0653C28.1441 10.6745 27.736 10.2459 27.2634 9.74961C26.7828 9.24426 26.0699 8.49563 26.1281 8.11709C26.4651 8.11646 27.2907 8.30871 27.7995 8.4327C28.4493 8.59144 29.0767 8.74048 29.6334 8.78275C29.4083 9.19166 29.1761 9.71642 29.2526 10.3824C29.3349 11.1035 30.3163 13.5973 31.8817 14.5416C31.6853 14.9931 30.5392 15.5818 28.4659 16.2966C28.0815 16.429 27.9051 16.4901 27.7821 16.5555C27.7608 16.5681 27.736 16.5773 27.7092 16.5827C27.6824 16.588 27.6543 16.5893 27.6268 16.5865C27.5547 16.5759 27.4711 16.5176 27.3968 16.4281C27.3462 16.3655 27.3126 16.2321 27.2809 16.1022C27.1739 15.6673 26.9511 14.7633 25.0545 14.7633C24.0588 14.7633 23.2296 15.4024 22.5784 16.2114C22.8653 11.8436 23.3781 6.39721 23.5012 5.12101C24.0069 5.27286 24.7506 5.44663 25.5137 5.44663C25.8336 5.44663 26.1567 5.41595 26.4673 5.34049C27.1475 5.17423 27.6581 4.81448 27.9468 4.29974C28.0089 4.17568 27.9999 4.03959 27.9215 3.92012C27.8432 3.80064 27.7016 3.70709 27.5266 3.65918C27.3517 3.61126 27.157 3.6127 26.9835 3.66321C26.81 3.71372 26.6713 3.80935 26.5966 3.92996C26.4194 4.24494 26.1661 4.33887 25.9907 4.38208C25.3185 4.54646 24.2723 4.26436 23.7746 4.09121C24.0722 3.39549 24.6902 2.43051 25.9007 2.08359ZM2.04844 13.737C2.76222 12.4216 4.11638 11.6154 4.77109 11.2854C4.84896 11.2801 4.9228 11.2638 4.99395 11.2419C5.30542 11.2854 5.68133 11.3057 6.0899 11.3057C7.47853 11.3057 9.20682 11.0809 9.81096 10.8167C9.97019 10.7442 10.0824 10.6308 10.1234 10.501C10.1644 10.3713 10.131 10.2354 10.0303 10.1227C9.9296 10.01 9.76969 9.92941 9.58498 9.89835C9.40026 9.86728 9.20549 9.88819 9.04258 9.95657C8.42591 10.2265 5.67148 10.3871 5.19667 10.2465C5.09284 10.1993 4.98687 10.1544 4.87894 10.1119C4.35535 9.90115 4.00943 9.76244 4.17008 8.97906C4.59477 6.91008 4.78496 6.70687 7.55908 5.35646C7.82673 5.23112 8.09645 5.10796 8.36818 4.987C9.49635 4.47695 11.3848 3.62343 12.2436 3.11871C13.6851 2.27177 16.2104 1.7589 17.343 2.08391C18.5629 2.43395 19.1774 3.39581 19.4714 4.09152C18.9804 4.26529 17.9364 4.55084 17.2553 4.38427C17.079 4.34107 16.8252 4.24745 16.648 3.93153C16.615 3.86791 16.5642 3.80956 16.4984 3.7599C16.4327 3.71025 16.3534 3.67031 16.2653 3.64242C16.1771 3.61453 16.0819 3.59927 15.9852 3.59753C15.8885 3.59579 15.7923 3.6076 15.7022 3.63228C15.6121 3.65696 15.53 3.694 15.4607 3.74122C15.3914 3.78844 15.3364 3.84488 15.2987 3.90723C15.2611 3.96957 15.2417 4.03656 15.2416 4.10424C15.2415 4.17192 15.2608 4.23892 15.2983 4.3013C15.5861 4.81604 16.0976 5.17611 16.7782 5.34206C17.0848 5.41484 17.4068 5.45073 17.7305 5.4482C18.4927 5.4482 19.236 5.27443 19.7417 5.12257C19.8643 6.3994 20.3767 11.8452 20.664 16.2124C20.0124 15.4036 19.1841 14.7646 18.1892 14.7646C16.2936 14.7646 16.0707 15.6685 15.9638 16.1034C15.932 16.2327 15.8989 16.3667 15.8479 16.4293C15.774 16.5189 15.6903 16.5771 15.6179 16.5878C15.5722 16.595 15.514 16.5831 15.4644 16.5568C15.3404 16.4913 15.165 16.4303 14.7801 16.2978C12.7068 15.583 11.5625 14.9938 11.3661 14.5426C12.9301 13.598 13.9119 11.105 13.9943 10.3836C14.0699 9.71767 13.8386 9.19291 13.6135 8.784C14.1702 8.74173 14.7967 8.59269 15.446 8.43395C15.9548 8.30996 16.7823 8.11959 17.1161 8.11834C17.1738 8.49688 16.4619 9.24582 15.9812 9.75086C15.5096 10.2471 15.1019 10.6758 14.9667 11.0665C14.6593 11.9576 14.8141 12.6846 15.4259 13.2288C16.3826 14.0786 18.0836 14.0886 18.1557 14.0886C18.3449 14.0853 18.5248 14.0304 18.6569 13.9356C18.7891 13.8408 18.8631 13.7136 18.8631 13.5812C18.8631 13.4488 18.7891 13.3216 18.6569 13.2268C18.5248 13.132 18.3449 13.0771 18.1557 13.0738C18.1454 13.0738 17.0741 13.0538 16.5652 12.601C16.2426 12.3139 16.1786 11.8778 16.3764 11.3048C16.4511 11.0884 16.8427 10.6767 17.1882 10.3132C17.97 9.49098 18.856 8.5595 18.4757 7.74105C18.4253 7.62762 18.3425 7.52254 18.2324 7.43217C18.1222 7.3418 17.987 7.26804 17.8348 7.21535C17.0933 6.95767 16.0604 7.2094 14.9676 7.47617C14.5734 7.57229 13.9894 7.71412 13.5969 7.76704C13.6649 7.72227 13.7329 7.68 13.7893 7.64399C14.133 7.42764 14.5223 7.18279 14.7559 6.85591C15.6362 5.62416 14.1303 4.60564 13.2107 4.23931C13.0438 4.17246 12.8458 4.15473 12.6603 4.19002C12.4747 4.22531 12.3168 4.31073 12.2212 4.42748C12.1257 4.54424 12.1004 4.68276 12.1508 4.81259C12.2012 4.94242 12.3233 5.05291 12.4902 5.11975C12.5502 5.14386 13.9455 5.7206 13.4586 6.40191C13.3485 6.55658 13.0796 6.72597 12.8196 6.88941C12.3099 7.2094 11.6766 7.60798 11.8091 8.20977C11.8655 8.46401 12.0006 8.69758 12.1438 8.94493C12.3738 9.34132 12.611 9.75086 12.5484 10.3032C12.4302 11.343 11.1499 13.4552 10.356 13.8315C10.3101 13.8445 10.2665 13.86 10.2253 13.8782C10.1945 13.8854 10.1623 13.8957 10.1327 13.8957C8.69084 13.8957 6.07379 13.1571 5.57258 12.2475C5.50339 12.122 5.36574 12.0208 5.18992 11.9663C5.0141 11.9117 4.8145 11.9083 4.63505 11.9567C4.45559 12.0051 4.31098 12.1014 4.23301 12.2244C4.15504 12.3474 4.15012 12.4871 4.21931 12.6126C5.03288 14.0889 8.35968 14.8742 10.0217 14.9074C10.514 15.8438 12.283 16.554 13.5973 17.0192C14.125 17.3959 14.8956 18.157 14.5264 18.4367C14.4812 18.4708 14.2959 18.488 14.0994 18.5052C13.6309 18.5478 12.9462 18.6132 12.2347 19.0456C12.1263 18.8456 12.02 18.645 11.9156 18.4439C11.6896 18.0121 11.4766 17.6041 11.268 17.2898C10.6885 16.4156 9.86018 15.9105 8.80674 15.7875C6.68509 15.5414 4.60283 17.0073 4.37236 17.1761C4.24716 17.2742 4.1813 17.4025 4.18865 17.5339C4.196 17.6654 4.276 17.7897 4.41177 17.8807C4.54754 17.9716 4.72849 18.0222 4.91649 18.0216C5.10448 18.0211 5.28483 17.9695 5.41953 17.8778C5.86525 17.5518 7.40245 16.6479 8.56867 16.7885C9.1285 16.8536 9.58183 17.157 9.95282 17.7168C10.1358 17.9924 10.3386 18.3806 10.5534 18.7923C10.6548 18.9869 10.7585 19.1831 10.8644 19.381C10.4357 19.2729 9.96177 19.2012 9.46145 19.2012C7.53939 19.2012 7.32459 20.2044 7.19615 20.804C7.05698 21.4528 6.96389 21.6939 6.15435 21.7596C5.55155 21.5116 4.05955 19.6355 2.84635 17.591C2.81095 17.5314 2.75943 17.4772 2.69464 17.4313C2.69151 17.1197 2.52683 16.7932 2.32903 16.4203C1.94506 15.7001 1.46891 14.805 2.04844 13.737ZM19.6128 25.2767C18.9831 25.679 18.3208 25.8506 17.5941 25.7996C15.6237 25.6637 13.8408 23.9999 13.8059 23.9667C13.7503 23.9118 13.6796 23.8652 13.598 23.8296C13.5164 23.794 13.4255 23.7701 13.3305 23.7593C13.2356 23.7486 13.1386 23.7511 13.0451 23.7668C12.9516 23.7826 12.8635 23.8111 12.7859 23.8509C12.7083 23.8907 12.6429 23.9409 12.5933 23.9985C12.5437 24.0561 12.511 24.1201 12.4971 24.1867C12.4832 24.2533 12.4884 24.3211 12.5123 24.3863C12.5362 24.4515 12.5785 24.5126 12.6365 24.5663C12.7247 24.6505 14.8213 26.6259 17.4464 26.8093C17.5806 26.8185 17.7134 26.8231 17.8447 26.8231C18.1588 26.8231 18.4645 26.7934 18.763 26.7405C18.4578 26.9803 18.0026 27.2223 17.3157 27.4136L17.1994 27.4462C15.5386 27.9102 14.2265 28.2765 12.1461 27.6093C11.0416 27.2552 10.8698 26.7439 10.6532 26.097C10.4639 25.5309 10.2491 24.8903 9.31377 24.4727C7.98287 23.8781 6.79608 23.9407 5.84243 23.9908C4.86015 24.0428 4.26943 24.0744 3.61562 23.5027C0.587315 20.8541 1.88823 19.5572 1.93566 19.5115L2.05425 19.3637C2.06097 19.3503 2.11467 19.2441 2.18896 19.082C3.7727 21.5357 5.0933 22.7775 6.12347 22.7775C6.15062 22.7773 6.17747 22.7765 6.20402 22.775C8.26794 22.6423 8.49483 21.5849 8.62953 20.9537C8.76826 20.3078 8.82956 20.2148 9.461 20.2148C10.5534 20.2148 11.5455 20.7686 11.8829 20.9787C12.3944 21.6115 13.0111 22.1075 13.809 22.2837C14.9144 22.5273 15.4724 22.4644 16.179 22.3852C16.2837 22.3736 16.3943 22.3611 16.5142 22.3489C17.0754 22.2906 17.4952 22.3523 17.7999 22.5349C18.3141 22.8426 18.434 23.467 18.4367 23.6789C18.4367 23.8135 18.5131 23.9425 18.6491 24.0376C18.785 24.1327 18.9694 24.1862 19.1617 24.1862C19.354 24.1862 19.5384 24.1327 19.6743 24.0376C19.8103 23.9425 19.8867 23.8135 19.8867 23.6789C19.8867 23.5534 19.8544 22.4362 18.7518 21.7696C18.3159 21.506 17.5368 21.2179 16.3039 21.3448C16.1763 21.3582 16.0591 21.3714 15.9481 21.3836C15.3118 21.4553 15.0227 21.4882 14.2449 21.3163C13.8403 21.227 13.4546 20.8767 13.1019 20.4227L13.1181 20.4133C13.1046 20.3998 12.7945 20.0786 13.0442 19.8988C13.4837 19.5826 13.8547 19.5491 14.2834 19.5106C14.687 19.4743 15.1882 19.4286 15.591 19.1233C16.1884 18.6702 16.1625 18.1107 15.868 17.5831C15.8819 17.5816 15.8958 17.5822 15.9096 17.5806C16.3961 17.5096 16.8208 17.2794 17.1045 16.9319C17.2826 16.7149 17.3399 16.4813 17.3909 16.2747C17.4947 15.8542 17.5131 15.7781 18.1875 15.7781C18.9415 15.7781 20.1856 17.6439 20.8309 19.3559C20.8519 19.9333 20.8618 20.4405 20.8573 20.8522C20.8519 21.3307 20.8663 21.759 20.8783 22.1366C20.9307 23.7531 20.9517 24.4216 19.6128 25.2767ZM39.634 23.503C38.9792 24.0747 38.3876 24.0431 37.4058 23.9911C36.4522 23.9407 35.2649 23.8781 33.9331 24.4727C32.9965 24.8903 32.7826 25.5313 32.5928 26.097C32.3762 26.7442 32.2044 27.2555 31.0986 27.6096C29.0172 28.2781 27.7042 27.9105 26.0426 27.4462L25.9267 27.4136C25.2389 27.2223 24.7838 26.98 24.4786 26.7405C24.9084 26.8184 25.3548 26.8417 25.7965 26.8093C28.4225 26.6259 30.5204 24.6502 30.6081 24.5666C30.6645 24.5129 30.7051 24.4519 30.7278 24.3872C30.7505 24.3225 30.7547 24.2553 30.7402 24.1894C30.7258 24.1236 30.6929 24.0603 30.6435 24.0034C30.5941 23.9464 30.5292 23.8968 30.4524 23.8574C30.2971 23.778 30.1032 23.745 29.9131 23.7655C29.723 23.7859 29.5523 23.8583 29.4383 23.9667C28.9452 24.4376 27.3037 25.6844 25.6519 25.7996C24.9189 25.8528 24.2597 25.68 23.6287 25.277C22.288 24.4222 22.3099 23.7538 22.3623 22.1378C22.3744 21.7599 22.3882 21.3319 22.3829 20.8532C22.3788 20.4411 22.3887 19.9336 22.4097 19.3565C23.0537 17.6445 24.2982 15.779 25.0545 15.779C25.7294 15.779 25.7477 15.8551 25.8515 16.2762C25.9021 16.4819 25.9594 16.7155 26.1379 16.9328C26.4217 17.2804 26.8459 17.5105 27.3323 17.5816C27.3467 17.5831 27.3605 17.5825 27.3748 17.5841C27.0799 18.1117 27.054 18.6712 27.6523 19.1242C28.0555 19.4298 28.5567 19.4752 28.9599 19.5115C29.3895 19.55 29.7605 19.5835 30.2004 19.8998C30.4501 20.0792 30.1396 20.4007 30.1311 20.4105L30.1463 20.4195C29.7927 20.8754 29.4057 21.227 28.9998 21.3169C28.2211 21.4888 27.9311 21.4559 27.2947 21.3842C27.1838 21.372 27.0665 21.3588 26.939 21.3454C25.7047 21.2198 24.9256 21.5069 24.4897 21.7706C23.3871 22.4372 23.3553 23.5537 23.3553 23.6796C23.3553 23.8141 23.4317 23.9431 23.5676 24.0382C23.7036 24.1333 23.888 24.1868 24.0803 24.1868C24.2725 24.1868 24.4569 24.1333 24.5929 24.0382C24.7289 23.9431 24.8052 23.8141 24.8052 23.6796C24.8052 23.4823 24.922 22.8505 25.438 22.538C25.7432 22.3539 26.1643 22.2906 26.7286 22.3495C26.8486 22.362 26.9605 22.3741 27.0643 22.3858C27.7722 22.4657 28.3298 22.528 29.4352 22.2844C30.2349 22.1084 30.8502 21.6125 31.3626 20.9794C31.7023 20.7674 32.6935 20.2154 33.785 20.2154C34.4169 20.2154 34.4791 20.3084 34.6174 20.9543C34.753 21.5862 34.9798 22.6432 37.0438 22.7756C37.0706 22.7771 37.0975 22.7779 37.1243 22.7781C38.1558 22.7778 39.4769 21.5361 41.0615 19.082C41.1358 19.2451 41.1899 19.3509 41.1967 19.3644L41.3152 19.5122C41.3291 19.5244 42.6779 20.8422 39.634 23.503Z" fill="#002844"/>
<path d="M36.5081 9.12121C36.5594 9.12872 36.6101 9.13248 36.6602 9.13248C36.8389 9.13192 37.011 9.08523 37.1436 9.00136C37.2761 8.9175 37.3597 8.80236 37.3784 8.67802C37.3971 8.55368 37.3495 8.42889 37.2448 8.32757C37.1401 8.22625 36.9857 8.15554 36.811 8.12898C36.351 8.06042 34.9011 7.77017 34.2969 7.34936C33.6167 6.87689 33.8682 5.86181 34.0213 5.51176C34.0501 5.44812 34.0606 5.38113 34.0523 5.31464C34.0441 5.24814 34.0171 5.18344 33.973 5.12424C33.9289 5.06505 33.8686 5.01252 33.7954 4.96968C33.7223 4.92684 33.6378 4.89452 33.5467 4.87457C33.4557 4.85463 33.3599 4.84746 33.2649 4.85346C33.1699 4.85947 33.0775 4.87854 32.993 4.90958C32.9085 4.94062 32.8337 4.98301 32.7727 5.03434C32.7117 5.08566 32.6658 5.14491 32.6376 5.20867C32.6035 5.28413 31.8302 7.06412 33.2744 8.06887C34.2889 8.77429 36.2843 9.08771 36.5081 9.12121Z" fill="#002844"/>
</g>
</g>
<defs>
<clipPath id="clip0_3_38">
<rect width="42.8908" height="28.0145" fill="white" transform="translate(0.180176 0.974056)"/>
</clipPath>
<clipPath id="clip1_3_38">
<rect width="42.8908" height="28.0145" fill="white" transform="translate(0.180176 0.974056)"/>
</clipPath>
</defs>
</svg>
