<svg width="446" height="483" viewBox="0 0 446 483" fill="none" xmlns="http://www.w3.org/2000/svg">
<path fill-rule="evenodd" clip-rule="evenodd" d="M265.392 120.586C301.388 137.832 347.424 91.9742 382.73 110.646C418.869 129.759 449.805 173.45 445.377 215.774C440.79 259.621 394.84 285.407 361.519 313.396C340.1 331.388 308.281 328.714 287.941 348.017C261.369 373.235 259.672 419.628 229.017 439.148C189.974 464.008 127.288 504.27 98.1911 468.838C64.0535 427.268 141.463 358.325 121.129 307.769C102.223 260.763 1.03965 277.468 0.576079 226.142C0.148527 178.805 92.9177 198.479 119.791 159.587C150.932 114.519 104.105 15.6056 155.578 1.818C208.695 -12.4098 216.271 97.0521 265.392 120.586Z" fill="#002844"/>
</svg>
