<svg width="475" height="426" viewBox="0 0 475 426" fill="none" xmlns="http://www.w3.org/2000/svg">
<path fill-rule="evenodd" clip-rule="evenodd" d="M388.679 223.725C382.841 263.209 440.255 293.638 432.851 332.884C425.271 373.058 392.674 415.524 350.931 423.801C307.687 432.377 269.474 396.099 232.888 372.537C209.37 357.391 202.522 326.203 178.07 312.477C146.125 294.544 101.303 306.633 73.5962 283.115C38.3079 253.162 -18.6802 205.173 6.57061 166.906C36.1963 122.008 124.936 175.587 167.225 141.22C206.544 109.268 160.684 17.5401 209.58 1.92982C254.677 -12.4675 263.297 81.9721 308.393 96.1518C360.651 112.584 441.308 38.618 469.691 83.7177C498.98 130.257 396.646 169.843 388.679 223.725Z" fill="#002844"/>
</svg>
